M48
; DRILL file {KiCad 9.0.2} date 2025-08-01T12:28:09-0400
; FORMAT={-:-/ absolute / metric / decimal}
; #@! TF.CreationDate,2025-08-01T12:28:09-04:00
; #@! TF.GenerationSoftware,Kicad,Pcbnew,9.0.2
; #@! TF.FileFunction,Plated,1,2,PTH
FMAT,2
METRIC
; #@! TA.AperFunction,Plated,PTH,ComponentDrill
T1C0.889
; #@! TA.AperFunction,Plated,PTH,ComponentDrill
T2C1.000
; #@! TA.AperFunction,Plated,PTH,ComponentDrill
T3C1.500
%
G90
G05
T1
X40.97Y-35.2
X40.97Y-50.44
X43.51Y-35.2
X43.51Y-50.44
X46.05Y-35.2
X46.05Y-50.44
X48.59Y-35.2
X48.59Y-50.44
X51.13Y-35.2
X51.13Y-50.44
X53.67Y-35.2
X53.67Y-50.44
X56.21Y-35.2
X56.21Y-50.44
T2
X42.39Y-59.84
X42.39Y-62.34
X42.39Y-64.84
X56.89Y-59.84
X56.89Y-64.84
X61.6Y-36.08
X61.6Y-38.62
X61.6Y-41.16
X61.6Y-43.7
T3
X46.65Y-80.03
X53.0Y-77.49
X65.7Y-80.03
X65.71Y-60.96
X72.05Y-77.49
X72.06Y-58.42
X84.73Y-80.04
X84.76Y-60.96
X91.08Y-77.5
X91.11Y-58.42
T3
G00X49.24Y-56.74
M15
G01X50.54Y-56.74
M16
G05
G00X49.24Y-67.94
M15
G01X50.54Y-67.94
M16
G05
M30
