G04 #@! TF.GenerationSoftware,KiCad,Pcbnew,9.0.2*
G04 #@! TF.CreationDate,2025-08-01T12:28:15-04:00*
G04 #@! TF.ProjectId,hackpad,6861636b-7061-4642-9e6b-696361645f70,rev?*
G04 #@! TF.SameCoordinates,Original*
G04 #@! TF.FileFunction,Legend,Top*
G04 #@! TF.FilePolarity,Positive*
%FSLAX46Y46*%
G04 Gerber Fmt 4.6, Leading zero omitted, Abs format (unit mm)*
G04 Created by KiCad (PCBNEW 9.0.2) date 2025-08-01 12:28:15*
%MOMM*%
%LPD*%
G01*
G04 APERTURE LIST*
%ADD10C,0.300000*%
%ADD11C,0.150000*%
%ADD12C,0.101600*%
%ADD13C,0.120000*%
%ADD14C,0.127000*%
%ADD15C,0.100000*%
%ADD16C,0.504000*%
G04 APERTURE END LIST*
D10*
G36*
X79374997Y-49071590D02*
G01*
X79448085Y-49219583D01*
X79492875Y-49279685D01*
X79533008Y-49304581D01*
X79591243Y-49317329D01*
X79591243Y-49352500D01*
X78919057Y-49352500D01*
X78919057Y-49317329D01*
X78946717Y-49317329D01*
X79020885Y-49310394D01*
X79060473Y-49294156D01*
X79077191Y-49273979D01*
X79083005Y-49245613D01*
X79076868Y-49206595D01*
X79046093Y-49127552D01*
X78972363Y-48953895D01*
X78481526Y-48953895D01*
X78423091Y-49093114D01*
X78400651Y-49159189D01*
X78394423Y-49205771D01*
X78399907Y-49242355D01*
X78415409Y-49270571D01*
X78441501Y-49292507D01*
X78479492Y-49305050D01*
X78577880Y-49317329D01*
X78577880Y-49352500D01*
X78115711Y-49352500D01*
X78115711Y-49317329D01*
X78163324Y-49304964D01*
X78203889Y-49283997D01*
X78238627Y-49254222D01*
X78285604Y-49186990D01*
X78357512Y-49040632D01*
X78430682Y-48877691D01*
X78517430Y-48877691D01*
X78937466Y-48877691D01*
X78730562Y-48407829D01*
X78517430Y-48877691D01*
X78430682Y-48877691D01*
X78854485Y-47933937D01*
X78873994Y-47933937D01*
X79374997Y-49071590D01*
G37*
G36*
X80060373Y-47963246D02*
G01*
X80060373Y-49153197D01*
X80067968Y-49246082D01*
X80083912Y-49284631D01*
X80114992Y-49305677D01*
X80176144Y-49317329D01*
X80176144Y-49352500D01*
X79658654Y-49352500D01*
X79658654Y-49317329D01*
X79715909Y-49306156D01*
X79752902Y-49279959D01*
X79766565Y-49245717D01*
X79773418Y-49153197D01*
X79773418Y-48162548D01*
X79765805Y-48069984D01*
X79749788Y-48031390D01*
X79718881Y-48010153D01*
X79658654Y-47998417D01*
X79658654Y-47963246D01*
X80060373Y-47963246D01*
G37*
G36*
X80782002Y-48375074D02*
G01*
X80846439Y-48396868D01*
X80907026Y-48433685D01*
X80964743Y-48487422D01*
X81009341Y-48549549D01*
X81044184Y-48627178D01*
X81068382Y-48723523D01*
X81080056Y-48842520D01*
X80554415Y-48842520D01*
X80565144Y-48936593D01*
X80586241Y-49016028D01*
X80616629Y-49083094D01*
X80655898Y-49139642D01*
X80707535Y-49187159D01*
X80763525Y-49214406D01*
X80825983Y-49223539D01*
X80884691Y-49214909D01*
X80937632Y-49189101D01*
X80985662Y-49145429D01*
X81045252Y-49065270D01*
X81080056Y-49088717D01*
X81021951Y-49191634D01*
X80964572Y-49265182D01*
X80907865Y-49315222D01*
X80842320Y-49351965D01*
X80770178Y-49374181D01*
X80689695Y-49381809D01*
X80605772Y-49374770D01*
X80533322Y-49354670D01*
X80470269Y-49322249D01*
X80415089Y-49277167D01*
X80366928Y-49218044D01*
X80319239Y-49126259D01*
X80289376Y-49018320D01*
X80278818Y-48890606D01*
X80287772Y-48771495D01*
X80296462Y-48736733D01*
X80549286Y-48736733D01*
X80549286Y-48772178D01*
X80827998Y-48772178D01*
X80822386Y-48621862D01*
X80810046Y-48548422D01*
X80786216Y-48493539D01*
X80754267Y-48456281D01*
X80730040Y-48442900D01*
X80696839Y-48438054D01*
X80663999Y-48443601D01*
X80635404Y-48460195D01*
X80609736Y-48489712D01*
X80577808Y-48552695D01*
X80556941Y-48633522D01*
X80549286Y-48736733D01*
X80296462Y-48736733D01*
X80313098Y-48670188D01*
X80353374Y-48583643D01*
X80408419Y-48509495D01*
X80478115Y-48445883D01*
X80551111Y-48402259D01*
X80628569Y-48376431D01*
X80712226Y-48367712D01*
X80782002Y-48375074D01*
G37*
G36*
X81714033Y-48375074D02*
G01*
X81778470Y-48396868D01*
X81839057Y-48433685D01*
X81896774Y-48487422D01*
X81941372Y-48549549D01*
X81976215Y-48627178D01*
X82000412Y-48723523D01*
X82012087Y-48842520D01*
X81486446Y-48842520D01*
X81497175Y-48936593D01*
X81518271Y-49016028D01*
X81548660Y-49083094D01*
X81587929Y-49139642D01*
X81639566Y-49187159D01*
X81695556Y-49214406D01*
X81758013Y-49223539D01*
X81816721Y-49214909D01*
X81869663Y-49189101D01*
X81917693Y-49145429D01*
X81977282Y-49065270D01*
X82012087Y-49088717D01*
X81953982Y-49191634D01*
X81896602Y-49265182D01*
X81839896Y-49315222D01*
X81774351Y-49351965D01*
X81702209Y-49374181D01*
X81621726Y-49381809D01*
X81537803Y-49374770D01*
X81465353Y-49354670D01*
X81402300Y-49322249D01*
X81347120Y-49277167D01*
X81298959Y-49218044D01*
X81251270Y-49126259D01*
X81221407Y-49018320D01*
X81210848Y-48890606D01*
X81219802Y-48771495D01*
X81228493Y-48736733D01*
X81481317Y-48736733D01*
X81481317Y-48772178D01*
X81760028Y-48772178D01*
X81754417Y-48621862D01*
X81742076Y-48548422D01*
X81718247Y-48493539D01*
X81686297Y-48456281D01*
X81662071Y-48442900D01*
X81628870Y-48438054D01*
X81596029Y-48443601D01*
X81567435Y-48460195D01*
X81541767Y-48489712D01*
X81509839Y-48552695D01*
X81488972Y-48633522D01*
X81481317Y-48736733D01*
X81228493Y-48736733D01*
X81245129Y-48670188D01*
X81285404Y-48583643D01*
X81340450Y-48509495D01*
X81410145Y-48445883D01*
X81483142Y-48402259D01*
X81560600Y-48376431D01*
X81644257Y-48367712D01*
X81714033Y-48375074D01*
G37*
G36*
X82738221Y-48373574D02*
G01*
X82753608Y-48701837D01*
X82718712Y-48701837D01*
X82671642Y-48602019D01*
X82628529Y-48535411D01*
X82589111Y-48493833D01*
X82542126Y-48461590D01*
X82497967Y-48443741D01*
X82455388Y-48438054D01*
X82416316Y-48445192D01*
X82383580Y-48466448D01*
X82361132Y-48497374D01*
X82353905Y-48531844D01*
X82358810Y-48558524D01*
X82374421Y-48585424D01*
X82423573Y-48632204D01*
X82557786Y-48730138D01*
X82656824Y-48803094D01*
X82719759Y-48860081D01*
X82756081Y-48904253D01*
X82782557Y-48953802D01*
X82798414Y-49006847D01*
X82803800Y-49064446D01*
X82793988Y-49143315D01*
X82763775Y-49222165D01*
X82733186Y-49270053D01*
X82695815Y-49309238D01*
X82651118Y-49340593D01*
X82575069Y-49371370D01*
X82490284Y-49381809D01*
X82416978Y-49372894D01*
X82306827Y-49340043D01*
X82264787Y-49329052D01*
X82235545Y-49339381D01*
X82208458Y-49375947D01*
X82174661Y-49375947D01*
X82158266Y-49030099D01*
X82193071Y-49030099D01*
X82229881Y-49120666D01*
X82272232Y-49189735D01*
X82319558Y-49241125D01*
X82376141Y-49282513D01*
X82426234Y-49304636D01*
X82471782Y-49311467D01*
X82517105Y-49303626D01*
X82552199Y-49281058D01*
X82575641Y-49247405D01*
X82583432Y-49207419D01*
X82575656Y-49161075D01*
X82552657Y-49121873D01*
X82511211Y-49083161D01*
X82415362Y-49012697D01*
X82274645Y-48906599D01*
X82212488Y-48845726D01*
X82174517Y-48786631D01*
X82152320Y-48724953D01*
X82144894Y-48659247D01*
X82153276Y-48587849D01*
X82178306Y-48521307D01*
X82221189Y-48457930D01*
X82262362Y-48419389D01*
X82311671Y-48391480D01*
X82370774Y-48373948D01*
X82442015Y-48367712D01*
X82518137Y-48376983D01*
X82592683Y-48405265D01*
X82619552Y-48417247D01*
X82637745Y-48420469D01*
X82667421Y-48413416D01*
X82703325Y-48373574D01*
X82738221Y-48373574D01*
G37*
G36*
X83340341Y-47963246D02*
G01*
X83340341Y-48521677D01*
X83420096Y-48446336D01*
X83484780Y-48402609D01*
X83552054Y-48376331D01*
X83621067Y-48367712D01*
X83679399Y-48373644D01*
X83730287Y-48390778D01*
X83775307Y-48419003D01*
X83829235Y-48475734D01*
X83860303Y-48539537D01*
X83874950Y-48620624D01*
X83881369Y-48772911D01*
X83881369Y-49147336D01*
X83888183Y-49245659D01*
X83901885Y-49283257D01*
X83929473Y-49303770D01*
X83984867Y-49317329D01*
X83984867Y-49352500D01*
X83499159Y-49352500D01*
X83499159Y-49317329D01*
X83544972Y-49303029D01*
X83576004Y-49276571D01*
X83588319Y-49240337D01*
X83594414Y-49147336D01*
X83594414Y-48721071D01*
X83591301Y-48613230D01*
X83585163Y-48572327D01*
X83572522Y-48545064D01*
X83553931Y-48525249D01*
X83530525Y-48512608D01*
X83504289Y-48508396D01*
X83464572Y-48515129D01*
X83424330Y-48536423D01*
X83386951Y-48571467D01*
X83340341Y-48634792D01*
X83340341Y-49147336D01*
X83345492Y-49239548D01*
X83355728Y-49274556D01*
X83383098Y-49301283D01*
X83435595Y-49317329D01*
X83435595Y-49352500D01*
X82949888Y-49352500D01*
X82949888Y-49317329D01*
X83003814Y-49303593D01*
X83035983Y-49278677D01*
X83047399Y-49245339D01*
X83053386Y-49147336D01*
X83053386Y-48168410D01*
X83046736Y-48070410D01*
X83033419Y-48033222D01*
X83006185Y-48012780D01*
X82949888Y-47998417D01*
X82949888Y-47963246D01*
X83340341Y-47963246D01*
G37*
G36*
X84686277Y-48374853D02*
G01*
X84756910Y-48394453D01*
X84812667Y-48424774D01*
X84861798Y-48466223D01*
X84895174Y-48507230D01*
X84915615Y-48548330D01*
X84925239Y-48604221D01*
X84929995Y-48743144D01*
X84929995Y-49109508D01*
X84935124Y-49190750D01*
X84950512Y-49215479D01*
X84974050Y-49223539D01*
X84999609Y-49217417D01*
X85028364Y-49196428D01*
X85059139Y-49214014D01*
X85004503Y-49284785D01*
X84953076Y-49328594D01*
X84895072Y-49355172D01*
X84828604Y-49364223D01*
X84775279Y-49359344D01*
X84733389Y-49345920D01*
X84700468Y-49324931D01*
X84674740Y-49295783D01*
X84655773Y-49256973D01*
X84644139Y-49205954D01*
X84549289Y-49281858D01*
X84466798Y-49330055D01*
X84394339Y-49356145D01*
X84329524Y-49364223D01*
X84277072Y-49358063D01*
X84232231Y-49340288D01*
X84193237Y-49310734D01*
X84163147Y-49272219D01*
X84145143Y-49228133D01*
X84138923Y-49176736D01*
X84148943Y-49107937D01*
X84160180Y-49084046D01*
X84419741Y-49084046D01*
X84428088Y-49127895D01*
X84453538Y-49166661D01*
X84483344Y-49186968D01*
X84525254Y-49194230D01*
X84557710Y-49188887D01*
X84596580Y-49170827D01*
X84644139Y-49135612D01*
X84644139Y-48817791D01*
X84564392Y-48870291D01*
X84503945Y-48921935D01*
X84459675Y-48972855D01*
X84429244Y-49029531D01*
X84419741Y-49084046D01*
X84160180Y-49084046D01*
X84179370Y-49043247D01*
X84233170Y-48980548D01*
X84302844Y-48927595D01*
X84431429Y-48852528D01*
X84644139Y-48748640D01*
X84644139Y-48649996D01*
X84640183Y-48548886D01*
X84632324Y-48509953D01*
X84615969Y-48483684D01*
X84587719Y-48459578D01*
X84553088Y-48443493D01*
X84513989Y-48438054D01*
X84451587Y-48446124D01*
X84404354Y-48468463D01*
X84383904Y-48489687D01*
X84377701Y-48512518D01*
X84383620Y-48534734D01*
X84406369Y-48567106D01*
X84436442Y-48613469D01*
X84445295Y-48654209D01*
X84435958Y-48701793D01*
X84407834Y-48741862D01*
X84365644Y-48768640D01*
X84310015Y-48778040D01*
X84250078Y-48768063D01*
X84201938Y-48739114D01*
X84168995Y-48696112D01*
X84158432Y-48647798D01*
X84164571Y-48600558D01*
X84183425Y-48553947D01*
X84216776Y-48506748D01*
X84259197Y-48466691D01*
X84312856Y-48432242D01*
X84379716Y-48403616D01*
X84486085Y-48376728D01*
X84596970Y-48367712D01*
X84686277Y-48374853D01*
G37*
G36*
X85414695Y-48613909D02*
G01*
X85365511Y-48613909D01*
X85257891Y-48223273D01*
X85242236Y-48151756D01*
X85237375Y-48089367D01*
X85242375Y-48046816D01*
X85256825Y-48010314D01*
X85280881Y-47978450D01*
X85312247Y-47953672D01*
X85347530Y-47938976D01*
X85388042Y-47933937D01*
X85434341Y-47939561D01*
X85470982Y-47955331D01*
X85500241Y-47981015D01*
X85530111Y-48030748D01*
X85539717Y-48083230D01*
X85534877Y-48134606D01*
X85516178Y-48222266D01*
X85414695Y-48613909D01*
G37*
G36*
X86353504Y-48373574D02*
G01*
X86368891Y-48701837D01*
X86333995Y-48701837D01*
X86286924Y-48602019D01*
X86243812Y-48535411D01*
X86204393Y-48493833D01*
X86157408Y-48461590D01*
X86113250Y-48443741D01*
X86070670Y-48438054D01*
X86031598Y-48445192D01*
X85998863Y-48466448D01*
X85976414Y-48497374D01*
X85969187Y-48531844D01*
X85974093Y-48558524D01*
X85989704Y-48585424D01*
X86038855Y-48632204D01*
X86173069Y-48730138D01*
X86272107Y-48803094D01*
X86335041Y-48860081D01*
X86371364Y-48904253D01*
X86397840Y-48953802D01*
X86413697Y-49006847D01*
X86419083Y-49064446D01*
X86409271Y-49143315D01*
X86379057Y-49222165D01*
X86348469Y-49270053D01*
X86311098Y-49309238D01*
X86266400Y-49340593D01*
X86190352Y-49371370D01*
X86105567Y-49381809D01*
X86032261Y-49372894D01*
X85922110Y-49340043D01*
X85880069Y-49329052D01*
X85850828Y-49339381D01*
X85823741Y-49375947D01*
X85789944Y-49375947D01*
X85773549Y-49030099D01*
X85808353Y-49030099D01*
X85845164Y-49120666D01*
X85887515Y-49189735D01*
X85934841Y-49241125D01*
X85991424Y-49282513D01*
X86041516Y-49304636D01*
X86087065Y-49311467D01*
X86132387Y-49303626D01*
X86167482Y-49281058D01*
X86190923Y-49247405D01*
X86198715Y-49207419D01*
X86190939Y-49161075D01*
X86167940Y-49121873D01*
X86126493Y-49083161D01*
X86030645Y-49012697D01*
X85889928Y-48906599D01*
X85827771Y-48845726D01*
X85789799Y-48786631D01*
X85767603Y-48724953D01*
X85760177Y-48659247D01*
X85768559Y-48587849D01*
X85793589Y-48521307D01*
X85836472Y-48457930D01*
X85877645Y-48419389D01*
X85926953Y-48391480D01*
X85986056Y-48373948D01*
X86057298Y-48367712D01*
X86133420Y-48376983D01*
X86207965Y-48405265D01*
X86234834Y-48417247D01*
X86253028Y-48420469D01*
X86282704Y-48413416D01*
X86318607Y-48373574D01*
X86353504Y-48373574D01*
G37*
G36*
X87591906Y-48684251D02*
G01*
X87591906Y-49112165D01*
X87595857Y-49211582D01*
X87603630Y-49249002D01*
X87620201Y-49273682D01*
X87649792Y-49296812D01*
X87687875Y-49311678D01*
X87742574Y-49317329D01*
X87788644Y-49317329D01*
X87788644Y-49352500D01*
X87062144Y-49352500D01*
X87062144Y-49317329D01*
X87108214Y-49317329D01*
X87164991Y-49311305D01*
X87205575Y-49295255D01*
X87228531Y-49276008D01*
X87246608Y-49244697D01*
X87254034Y-49209501D01*
X87257874Y-49112165D01*
X87257874Y-48203581D01*
X87254074Y-48104161D01*
X87246608Y-48066836D01*
X87230453Y-48042104D01*
X87200996Y-48018934D01*
X87162913Y-48004068D01*
X87108214Y-47998417D01*
X87062144Y-47998417D01*
X87062144Y-47963246D01*
X87788644Y-47963246D01*
X87788644Y-47998417D01*
X87742574Y-47998417D01*
X87685865Y-48004435D01*
X87645212Y-48020491D01*
X87622046Y-48039706D01*
X87603172Y-48071049D01*
X87595746Y-48106244D01*
X87591906Y-48203581D01*
X87591906Y-48596324D01*
X88082743Y-48596324D01*
X88082743Y-48203581D01*
X88078943Y-48104161D01*
X88071477Y-48066836D01*
X88055232Y-48042143D01*
X88025315Y-48018934D01*
X87986838Y-48004053D01*
X87932076Y-47998417D01*
X87887013Y-47998417D01*
X87887013Y-47963246D01*
X88612506Y-47963246D01*
X88612506Y-47998417D01*
X88567443Y-47998417D01*
X88509918Y-48004499D01*
X88470082Y-48020491D01*
X88446915Y-48039706D01*
X88428041Y-48071049D01*
X88420615Y-48106244D01*
X88416776Y-48203581D01*
X88416776Y-49112165D01*
X88420573Y-49211594D01*
X88428041Y-49249002D01*
X88444263Y-49273625D01*
X88474112Y-49296812D01*
X88512668Y-49311696D01*
X88567443Y-49317329D01*
X88612506Y-49317329D01*
X88612506Y-49352500D01*
X87887013Y-49352500D01*
X87887013Y-49317329D01*
X87932076Y-49317329D01*
X87989600Y-49311247D01*
X88029437Y-49295255D01*
X88052603Y-49276039D01*
X88071477Y-49244697D01*
X88078903Y-49209501D01*
X88082743Y-49112165D01*
X88082743Y-48684251D01*
X87591906Y-48684251D01*
G37*
G36*
X89292209Y-48374853D02*
G01*
X89362842Y-48394453D01*
X89418599Y-48424774D01*
X89467730Y-48466223D01*
X89501106Y-48507230D01*
X89521547Y-48548330D01*
X89531170Y-48604221D01*
X89535927Y-48743144D01*
X89535927Y-49109508D01*
X89541056Y-49190750D01*
X89556443Y-49215479D01*
X89579982Y-49223539D01*
X89605541Y-49217417D01*
X89634296Y-49196428D01*
X89665070Y-49214014D01*
X89610434Y-49284785D01*
X89559008Y-49328594D01*
X89501004Y-49355172D01*
X89434535Y-49364223D01*
X89381211Y-49359344D01*
X89339321Y-49345920D01*
X89306400Y-49324931D01*
X89280672Y-49295783D01*
X89261704Y-49256973D01*
X89250071Y-49205954D01*
X89155221Y-49281858D01*
X89072729Y-49330055D01*
X89000271Y-49356145D01*
X88935456Y-49364223D01*
X88883003Y-49358063D01*
X88838162Y-49340288D01*
X88799168Y-49310734D01*
X88769079Y-49272219D01*
X88751075Y-49228133D01*
X88744855Y-49176736D01*
X88754874Y-49107937D01*
X88766111Y-49084046D01*
X89025673Y-49084046D01*
X89034020Y-49127895D01*
X89059470Y-49166661D01*
X89089276Y-49186968D01*
X89131186Y-49194230D01*
X89163642Y-49188887D01*
X89202512Y-49170827D01*
X89250071Y-49135612D01*
X89250071Y-48817791D01*
X89170324Y-48870291D01*
X89109877Y-48921935D01*
X89065607Y-48972855D01*
X89035176Y-49029531D01*
X89025673Y-49084046D01*
X88766111Y-49084046D01*
X88785301Y-49043247D01*
X88839102Y-48980548D01*
X88908775Y-48927595D01*
X89037361Y-48852528D01*
X89250071Y-48748640D01*
X89250071Y-48649996D01*
X89246115Y-48548886D01*
X89238256Y-48509953D01*
X89221901Y-48483684D01*
X89193651Y-48459578D01*
X89159020Y-48443493D01*
X89119920Y-48438054D01*
X89057518Y-48446124D01*
X89010286Y-48468463D01*
X88989835Y-48489687D01*
X88983633Y-48512518D01*
X88989552Y-48534734D01*
X89012301Y-48567106D01*
X89042373Y-48613469D01*
X89051227Y-48654209D01*
X89041890Y-48701793D01*
X89013766Y-48741862D01*
X88971576Y-48768640D01*
X88915947Y-48778040D01*
X88856009Y-48768063D01*
X88807869Y-48739114D01*
X88774926Y-48696112D01*
X88764364Y-48647798D01*
X88770503Y-48600558D01*
X88789357Y-48553947D01*
X88822707Y-48506748D01*
X88865128Y-48466691D01*
X88918788Y-48432242D01*
X88985648Y-48403616D01*
X89092017Y-48376728D01*
X89202902Y-48367712D01*
X89292209Y-48374853D01*
G37*
G36*
X90552404Y-49105387D02*
G01*
X90584187Y-49129933D01*
X90533542Y-49210180D01*
X90477421Y-49272595D01*
X90415659Y-49319618D01*
X90346274Y-49354432D01*
X90275087Y-49374954D01*
X90200970Y-49381809D01*
X90108203Y-49372419D01*
X90027788Y-49345374D01*
X89957136Y-49300950D01*
X89894597Y-49237553D01*
X89844852Y-49162593D01*
X89809212Y-49080706D01*
X89787366Y-48990593D01*
X89779834Y-48890606D01*
X89786625Y-48794015D01*
X89806447Y-48705325D01*
X89838934Y-48623259D01*
X89884339Y-48546773D01*
X89939526Y-48481365D01*
X90000811Y-48431917D01*
X90068945Y-48396736D01*
X90145296Y-48375181D01*
X90231744Y-48367712D01*
X90328155Y-48376845D01*
X90405522Y-48402244D01*
X90467866Y-48442451D01*
X90518355Y-48496651D01*
X90546397Y-48551570D01*
X90555519Y-48609146D01*
X90546303Y-48662585D01*
X90520164Y-48702295D01*
X90480189Y-48727998D01*
X90427474Y-48737008D01*
X90371720Y-48726808D01*
X90327457Y-48696982D01*
X90306614Y-48667428D01*
X90289835Y-48621771D01*
X90278822Y-48554192D01*
X90267063Y-48495474D01*
X90249146Y-48463700D01*
X90223142Y-48444311D01*
X90193734Y-48438054D01*
X90163568Y-48443460D01*
X90135960Y-48460035D01*
X90109745Y-48490261D01*
X90082352Y-48545651D01*
X90063590Y-48623793D01*
X90056439Y-48731695D01*
X90067286Y-48864301D01*
X90099487Y-48990074D01*
X90133719Y-49069046D01*
X90173144Y-49129158D01*
X90217364Y-49173714D01*
X90256852Y-49197978D01*
X90300830Y-49212633D01*
X90350538Y-49217677D01*
X90399377Y-49211833D01*
X90445792Y-49194230D01*
X90491065Y-49163509D01*
X90552404Y-49105387D01*
G37*
G36*
X91091967Y-47963246D02*
G01*
X91091967Y-48871646D01*
X91314351Y-48654301D01*
X91375271Y-48592670D01*
X91399897Y-48560420D01*
X91412833Y-48530843D01*
X91416841Y-48503817D01*
X91411280Y-48479073D01*
X91394218Y-48458479D01*
X91365622Y-48444264D01*
X91306107Y-48432192D01*
X91306107Y-48397021D01*
X91735486Y-48397021D01*
X91735486Y-48432192D01*
X91676817Y-48441101D01*
X91627867Y-48460677D01*
X91572928Y-48500673D01*
X91447524Y-48613909D01*
X91343019Y-48716674D01*
X91568424Y-49050982D01*
X91693553Y-49231807D01*
X91730357Y-49278128D01*
X91769346Y-49305270D01*
X91818468Y-49317329D01*
X91818468Y-49352500D01*
X91323601Y-49352500D01*
X91323601Y-49317329D01*
X91353558Y-49313760D01*
X91371229Y-49304872D01*
X91382637Y-49291298D01*
X91386066Y-49277761D01*
X91378335Y-49250197D01*
X91343019Y-49189284D01*
X91153425Y-48907184D01*
X91091967Y-48968550D01*
X91091967Y-49147336D01*
X91098752Y-49245667D01*
X91112392Y-49283257D01*
X91140113Y-49303727D01*
X91196473Y-49317329D01*
X91196473Y-49352500D01*
X90701606Y-49352500D01*
X90701606Y-49317329D01*
X90755532Y-49303593D01*
X90787702Y-49278677D01*
X90799118Y-49245339D01*
X90805104Y-49147336D01*
X90805104Y-48168410D01*
X90798455Y-48070410D01*
X90785137Y-48033222D01*
X90757903Y-48012780D01*
X90701606Y-47998417D01*
X90701606Y-47963246D01*
X91091967Y-47963246D01*
G37*
G36*
X92573613Y-48375075D02*
G01*
X92637156Y-48396983D01*
X92697559Y-48434207D01*
X92749706Y-48483039D01*
X92793578Y-48543680D01*
X92829267Y-48617939D01*
X92854086Y-48697151D01*
X92869190Y-48780979D01*
X92874330Y-48870181D01*
X92868932Y-48966141D01*
X92853230Y-49054317D01*
X92827710Y-49135703D01*
X92790665Y-49211649D01*
X92745592Y-49271958D01*
X92692430Y-49318886D01*
X92630933Y-49353941D01*
X92565658Y-49374769D01*
X92495234Y-49381809D01*
X92418636Y-49373052D01*
X92347681Y-49347004D01*
X92297927Y-49313219D01*
X92240061Y-49255779D01*
X92240061Y-49616282D01*
X92243739Y-49684500D01*
X92251785Y-49717215D01*
X92266926Y-49740518D01*
X92288147Y-49756325D01*
X92318759Y-49764784D01*
X92384501Y-49768689D01*
X92384501Y-49803860D01*
X91838343Y-49803860D01*
X91838343Y-49768689D01*
X91895724Y-49757884D01*
X91932590Y-49732694D01*
X91946302Y-49699162D01*
X91953107Y-49610420D01*
X91953107Y-48640287D01*
X92240061Y-48640287D01*
X92240061Y-49151366D01*
X92289481Y-49210653D01*
X92336700Y-49248554D01*
X92382605Y-49269545D01*
X92428647Y-49276296D01*
X92462427Y-49270179D01*
X92492352Y-49251619D01*
X92519781Y-49217952D01*
X92545696Y-49156722D01*
X92565170Y-49053372D01*
X92573087Y-48890239D01*
X92564504Y-48723286D01*
X92543252Y-48616061D01*
X92514651Y-48551261D01*
X92484901Y-48516977D01*
X92450642Y-48497435D01*
X92410146Y-48490811D01*
X92364232Y-48498811D01*
X92321504Y-48523430D01*
X92280218Y-48568335D01*
X92240061Y-48640287D01*
X91953107Y-48640287D01*
X91953107Y-48596324D01*
X91945484Y-48503448D01*
X91929476Y-48464890D01*
X91898591Y-48443812D01*
X91838343Y-48432192D01*
X91838343Y-48397021D01*
X92240061Y-48397021D01*
X92240061Y-48523051D01*
X92293265Y-48456927D01*
X92342552Y-48416439D01*
X92394133Y-48389262D01*
X92448124Y-48373139D01*
X92505492Y-48367712D01*
X92573613Y-48375075D01*
G37*
G36*
X93606514Y-48374853D02*
G01*
X93677148Y-48394453D01*
X93732904Y-48424774D01*
X93782035Y-48466223D01*
X93815411Y-48507230D01*
X93835853Y-48548330D01*
X93845476Y-48604221D01*
X93850232Y-48743144D01*
X93850232Y-49109508D01*
X93855362Y-49190750D01*
X93870749Y-49215479D01*
X93894288Y-49223539D01*
X93919847Y-49217417D01*
X93948601Y-49196428D01*
X93979376Y-49214014D01*
X93924740Y-49284785D01*
X93873313Y-49328594D01*
X93815309Y-49355172D01*
X93748841Y-49364223D01*
X93695517Y-49359344D01*
X93653627Y-49345920D01*
X93620705Y-49324931D01*
X93594977Y-49295783D01*
X93576010Y-49256973D01*
X93564377Y-49205954D01*
X93469526Y-49281858D01*
X93387035Y-49330055D01*
X93314577Y-49356145D01*
X93249761Y-49364223D01*
X93197309Y-49358063D01*
X93152468Y-49340288D01*
X93113474Y-49310734D01*
X93083385Y-49272219D01*
X93065381Y-49228133D01*
X93059160Y-49176736D01*
X93069180Y-49107937D01*
X93080417Y-49084046D01*
X93339979Y-49084046D01*
X93348325Y-49127895D01*
X93373776Y-49166661D01*
X93403581Y-49186968D01*
X93445491Y-49194230D01*
X93477948Y-49188887D01*
X93516817Y-49170827D01*
X93564377Y-49135612D01*
X93564377Y-48817791D01*
X93484630Y-48870291D01*
X93424182Y-48921935D01*
X93379912Y-48972855D01*
X93349481Y-49029531D01*
X93339979Y-49084046D01*
X93080417Y-49084046D01*
X93099607Y-49043247D01*
X93153408Y-48980548D01*
X93223081Y-48927595D01*
X93351666Y-48852528D01*
X93564377Y-48748640D01*
X93564377Y-48649996D01*
X93560421Y-48548886D01*
X93552561Y-48509953D01*
X93536207Y-48483684D01*
X93507957Y-48459578D01*
X93473326Y-48443493D01*
X93434226Y-48438054D01*
X93371824Y-48446124D01*
X93324591Y-48468463D01*
X93304141Y-48489687D01*
X93297938Y-48512518D01*
X93303858Y-48534734D01*
X93326606Y-48567106D01*
X93356679Y-48613469D01*
X93365532Y-48654209D01*
X93356196Y-48701793D01*
X93328072Y-48741862D01*
X93285881Y-48768640D01*
X93230252Y-48778040D01*
X93170315Y-48768063D01*
X93122175Y-48739114D01*
X93089232Y-48696112D01*
X93078669Y-48647798D01*
X93084808Y-48600558D01*
X93103662Y-48553947D01*
X93137013Y-48506748D01*
X93179434Y-48466691D01*
X93233094Y-48432242D01*
X93299953Y-48403616D01*
X93406323Y-48376728D01*
X93517207Y-48367712D01*
X93606514Y-48374853D01*
G37*
G36*
X95016278Y-49071132D02*
G01*
X95018467Y-49170248D01*
X95022415Y-49201008D01*
X95034742Y-49230525D01*
X95053647Y-49250284D01*
X95081552Y-49262392D01*
X95134156Y-49270434D01*
X95134156Y-49305605D01*
X94729415Y-49381809D01*
X94729415Y-49230134D01*
X94655847Y-49308622D01*
X94599814Y-49350118D01*
X94539994Y-49373695D01*
X94471220Y-49381809D01*
X94384021Y-49371504D01*
X94308235Y-49341563D01*
X94241119Y-49291444D01*
X94181243Y-49218044D01*
X94134590Y-49125781D01*
X94105430Y-49018097D01*
X94095147Y-48891613D01*
X94097849Y-48847375D01*
X94395382Y-48847375D01*
X94403285Y-49018280D01*
X94422035Y-49117935D01*
X94455544Y-49197000D01*
X94494759Y-49244972D01*
X94521450Y-49259292D01*
X94559330Y-49264572D01*
X94599073Y-49257402D01*
X94639667Y-49234474D01*
X94682822Y-49191295D01*
X94729415Y-49120774D01*
X94729415Y-48608047D01*
X94685251Y-48541434D01*
X94640199Y-48498912D01*
X94593661Y-48475151D01*
X94543943Y-48467363D01*
X94508697Y-48472740D01*
X94481478Y-48487971D01*
X94449211Y-48528268D01*
X94419471Y-48600628D01*
X94402512Y-48691874D01*
X94395382Y-48847375D01*
X94097849Y-48847375D01*
X94101371Y-48789701D01*
X94119340Y-48697902D01*
X94148361Y-48614825D01*
X94189730Y-48537737D01*
X94238362Y-48476952D01*
X94294357Y-48430177D01*
X94358473Y-48395166D01*
X94424537Y-48374587D01*
X94493751Y-48367712D01*
X94559625Y-48374475D01*
X94615659Y-48393816D01*
X94667714Y-48427196D01*
X94729415Y-48484949D01*
X94729415Y-48197719D01*
X94726182Y-48093985D01*
X94720164Y-48059508D01*
X94704458Y-48032042D01*
X94683253Y-48013438D01*
X94653021Y-48003070D01*
X94591113Y-47998417D01*
X94591113Y-47963246D01*
X95016278Y-47963246D01*
X95016278Y-49071132D01*
G37*
D11*
G36*
X48370717Y-47088388D02*
G01*
X48419156Y-47102605D01*
X48461829Y-47125739D01*
X48499689Y-47158240D01*
X48529565Y-47197462D01*
X48551666Y-47244626D01*
X48565734Y-47301333D01*
X48570764Y-47369632D01*
X48566001Y-47442111D01*
X48551652Y-47525398D01*
X48821113Y-47525398D01*
X48880481Y-47522327D01*
X48913409Y-47515183D01*
X48929556Y-47506286D01*
X48945669Y-47487009D01*
X48955869Y-47461477D01*
X48959598Y-47427701D01*
X48959598Y-47392225D01*
X48985000Y-47392225D01*
X48985000Y-47789119D01*
X48959598Y-47789119D01*
X48959598Y-47754254D01*
X48954876Y-47717097D01*
X48942002Y-47689949D01*
X48921374Y-47670234D01*
X48892808Y-47661065D01*
X48820990Y-47656557D01*
X48222840Y-47656557D01*
X48163357Y-47659528D01*
X48130398Y-47666433D01*
X48114274Y-47674997D01*
X48098130Y-47694714D01*
X48087942Y-47720502D01*
X48084232Y-47754254D01*
X48084232Y-47789119D01*
X48058831Y-47789119D01*
X48058831Y-47449561D01*
X48059383Y-47435944D01*
X48112564Y-47435944D01*
X48115422Y-47472932D01*
X48125570Y-47525398D01*
X48512145Y-47525398D01*
X48522404Y-47461223D01*
X48525823Y-47413352D01*
X48519748Y-47368356D01*
X48501728Y-47327975D01*
X48470685Y-47290803D01*
X48431164Y-47262607D01*
X48384204Y-47245300D01*
X48327742Y-47239207D01*
X48269264Y-47245435D01*
X48215757Y-47263814D01*
X48183565Y-47282881D01*
X48158008Y-47306020D01*
X48138271Y-47333484D01*
X48119153Y-47380990D01*
X48112564Y-47435944D01*
X48059383Y-47435944D01*
X48062203Y-47366321D01*
X48071224Y-47302153D01*
X48084476Y-47253556D01*
X48105442Y-47208302D01*
X48134073Y-47168199D01*
X48170938Y-47132656D01*
X48213696Y-47105457D01*
X48261308Y-47089075D01*
X48315163Y-47083441D01*
X48370717Y-47088388D01*
G37*
G36*
X48011936Y-46775756D02*
G01*
X48842667Y-46775756D01*
X48896515Y-46773020D01*
X48920642Y-46767207D01*
X48937514Y-46756308D01*
X48949706Y-46740890D01*
X48956527Y-46719133D01*
X48959598Y-46674639D01*
X48985000Y-46674639D01*
X48985000Y-46981347D01*
X48959598Y-46981347D01*
X48956848Y-46941912D01*
X48950744Y-46922668D01*
X48939323Y-46908972D01*
X48921313Y-46898060D01*
X48896075Y-46891954D01*
X48842667Y-46889146D01*
X48273825Y-46889146D01*
X48177674Y-46890802D01*
X48143583Y-46893969D01*
X48121862Y-46900794D01*
X48110427Y-46909296D01*
X48103840Y-46921027D01*
X48101512Y-46936284D01*
X48103891Y-46954938D01*
X48112442Y-46981347D01*
X48088506Y-46993010D01*
X48011936Y-46806469D01*
X48011936Y-46775756D01*
G37*
G36*
X48944323Y-46070582D02*
G01*
X48975231Y-46108486D01*
X48991652Y-46142411D01*
X48996723Y-46173758D01*
X48990777Y-46204178D01*
X48973520Y-46227064D01*
X48945296Y-46241213D01*
X48894263Y-46247581D01*
X48960154Y-46336081D01*
X48980359Y-46368481D01*
X48992601Y-46406401D01*
X48996723Y-46447005D01*
X48991644Y-46488377D01*
X48976985Y-46523524D01*
X48952515Y-46553922D01*
X48920738Y-46576824D01*
X48882540Y-46590940D01*
X48836133Y-46595932D01*
X48792830Y-46590619D01*
X48757182Y-46575477D01*
X48728954Y-46554055D01*
X48699990Y-46522405D01*
X48670109Y-46478146D01*
X48629455Y-46396402D01*
X48570764Y-46247581D01*
X48612773Y-46247581D01*
X48670109Y-46380754D01*
X48702257Y-46429245D01*
X48732208Y-46457996D01*
X48766242Y-46475451D01*
X48802978Y-46481199D01*
X48834234Y-46477776D01*
X48860777Y-46467964D01*
X48883639Y-46451829D01*
X48901815Y-46430646D01*
X48912188Y-46408343D01*
X48915635Y-46384174D01*
X48909925Y-46351202D01*
X48889591Y-46307025D01*
X48848162Y-46247581D01*
X48612773Y-46247581D01*
X48570764Y-46247581D01*
X48546095Y-46247581D01*
X48483506Y-46251827D01*
X48442632Y-46262485D01*
X48417196Y-46277317D01*
X48398231Y-46299331D01*
X48386450Y-46327495D01*
X48382208Y-46363718D01*
X48388324Y-46403283D01*
X48405289Y-46431984D01*
X48430641Y-46451704D01*
X48458290Y-46457935D01*
X48497735Y-46456592D01*
X48526341Y-46460918D01*
X48545973Y-46472650D01*
X48558588Y-46490896D01*
X48562948Y-46514660D01*
X48558456Y-46537785D01*
X48545240Y-46555998D01*
X48525075Y-46567779D01*
X48496880Y-46572057D01*
X48460425Y-46565932D01*
X48424982Y-46546862D01*
X48389230Y-46511974D01*
X48363182Y-46469219D01*
X48346355Y-46414098D01*
X48340198Y-46343202D01*
X48343687Y-46288127D01*
X48353334Y-46243161D01*
X48368225Y-46206548D01*
X48384851Y-46182210D01*
X48406679Y-46162520D01*
X48434476Y-46147136D01*
X48471506Y-46138801D01*
X48554766Y-46134863D01*
X48767257Y-46134863D01*
X48876922Y-46131443D01*
X48894948Y-46126403D01*
X48903911Y-46120208D01*
X48910750Y-46102073D01*
X48905926Y-46082900D01*
X48856100Y-46027579D01*
X48894324Y-46027579D01*
X48944323Y-46070582D01*
G37*
G36*
X48748328Y-45449273D02*
G01*
X48809264Y-45465925D01*
X48860317Y-45488206D01*
X48902896Y-45515703D01*
X48938105Y-45548374D01*
X48975680Y-45600490D01*
X48997344Y-45654412D01*
X49004539Y-45711590D01*
X48999062Y-45762599D01*
X48982806Y-45809903D01*
X48955255Y-45854597D01*
X48914902Y-45897398D01*
X48868177Y-45930920D01*
X48813338Y-45955573D01*
X48748843Y-45971137D01*
X48672735Y-45976654D01*
X48599764Y-45970748D01*
X48536478Y-45953866D01*
X48481178Y-45926653D01*
X48432583Y-45888910D01*
X48391569Y-45841975D01*
X48363081Y-45791823D01*
X48346012Y-45737615D01*
X48340198Y-45678129D01*
X48345984Y-45618374D01*
X48362357Y-45568508D01*
X48388742Y-45526515D01*
X48424063Y-45491494D01*
X48457227Y-45472868D01*
X48489614Y-45467042D01*
X48513230Y-45471342D01*
X48531379Y-45483772D01*
X48543054Y-45503032D01*
X48547316Y-45530545D01*
X48540496Y-45566702D01*
X48521427Y-45591361D01*
X48503451Y-45600180D01*
X48466960Y-45606749D01*
X48430563Y-45615955D01*
X48405594Y-45634409D01*
X48390659Y-45661627D01*
X48385139Y-45700660D01*
X48390941Y-45743817D01*
X48407683Y-45779891D01*
X48435881Y-45810630D01*
X48483530Y-45840465D01*
X48541818Y-45859236D01*
X48613506Y-45865951D01*
X48686825Y-45859613D01*
X48752512Y-45841210D01*
X48812015Y-45810997D01*
X48850746Y-45779978D01*
X48877051Y-45745461D01*
X48892687Y-45706743D01*
X48898049Y-45662436D01*
X48893012Y-45619435D01*
X48878026Y-45579706D01*
X48852437Y-45542207D01*
X48829244Y-45519963D01*
X48792749Y-45495656D01*
X48738803Y-45469118D01*
X48748328Y-45449273D01*
G37*
G36*
X48816496Y-44837147D02*
G01*
X48873190Y-44864588D01*
X48927419Y-44905100D01*
X48961461Y-44942185D01*
X48985240Y-44982773D01*
X48999604Y-45027644D01*
X49004539Y-45077963D01*
X48999047Y-45132316D01*
X48982896Y-45181894D01*
X48955850Y-45227856D01*
X48916734Y-45270976D01*
X48870760Y-45305054D01*
X48817115Y-45329989D01*
X48754339Y-45345667D01*
X48680551Y-45351209D01*
X48600223Y-45345401D01*
X48533151Y-45329123D01*
X48477040Y-45303517D01*
X48430080Y-45268900D01*
X48390524Y-45224795D01*
X48362788Y-45176346D01*
X48345983Y-45122612D01*
X48343865Y-45100494D01*
X48388070Y-45100494D01*
X48392857Y-45136520D01*
X48407232Y-45169990D01*
X48432217Y-45201916D01*
X48464206Y-45226859D01*
X48504499Y-45244445D01*
X48555132Y-45254184D01*
X48555132Y-44964573D01*
X48499449Y-44970639D01*
X48470258Y-44978922D01*
X48435868Y-45000283D01*
X48409991Y-45029786D01*
X48393429Y-45064769D01*
X48388070Y-45100494D01*
X48343865Y-45100494D01*
X48340198Y-45062209D01*
X48344764Y-45010749D01*
X48357922Y-44965527D01*
X48379398Y-44925361D01*
X48409624Y-44889407D01*
X48446196Y-44860461D01*
X48488516Y-44839473D01*
X48537690Y-44826366D01*
X48595188Y-44821752D01*
X48595188Y-45254184D01*
X48665098Y-45249664D01*
X48723633Y-45236335D01*
X48772722Y-45215194D01*
X48813907Y-45186590D01*
X48849658Y-45149575D01*
X48874001Y-45110947D01*
X48888337Y-45070080D01*
X48893164Y-45026000D01*
X48889255Y-44986189D01*
X48877905Y-44950887D01*
X48859153Y-44919144D01*
X48833537Y-44892489D01*
X48795800Y-44867005D01*
X48742711Y-44842940D01*
X48756449Y-44821752D01*
X48816496Y-44837147D01*
G37*
G36*
X48472028Y-43860901D02*
G01*
X48768417Y-43662148D01*
X48878492Y-43582313D01*
X48923756Y-43539538D01*
X48941743Y-43511321D01*
X48953796Y-43477884D01*
X48959598Y-43438055D01*
X48985000Y-43438055D01*
X48985000Y-43835622D01*
X48959598Y-43835622D01*
X48956851Y-43798625D01*
X48951416Y-43776881D01*
X48943633Y-43763817D01*
X48932609Y-43753312D01*
X48919585Y-43746287D01*
X48907025Y-43744092D01*
X48875640Y-43750259D01*
X48815495Y-43787811D01*
X48577908Y-43944920D01*
X48826425Y-44138971D01*
X48879364Y-44175852D01*
X48907025Y-44181958D01*
X48926847Y-44177429D01*
X48943234Y-44163518D01*
X48953557Y-44140385D01*
X48959598Y-44093176D01*
X48985000Y-44093176D01*
X48985000Y-44421743D01*
X48959598Y-44421743D01*
X48954078Y-44388395D01*
X48945249Y-44361660D01*
X48924575Y-44320596D01*
X48897438Y-44281059D01*
X48862279Y-44242826D01*
X48805298Y-44193620D01*
X48529426Y-43975023D01*
X48262468Y-44157411D01*
X48191149Y-44210415D01*
X48146015Y-44251775D01*
X48120136Y-44283807D01*
X48101294Y-44319704D01*
X48089290Y-44359269D01*
X48084232Y-44403303D01*
X48058831Y-44403303D01*
X48058831Y-43975023D01*
X48084232Y-43975023D01*
X48090655Y-44024777D01*
X48102001Y-44049823D01*
X48119228Y-44065320D01*
X48136805Y-44069973D01*
X48163830Y-44063507D01*
X48210566Y-44037183D01*
X48422875Y-43895095D01*
X48214658Y-43730414D01*
X48164160Y-43695304D01*
X48136133Y-43688771D01*
X48122560Y-43690842D01*
X48110854Y-43696953D01*
X48098580Y-43708665D01*
X48090704Y-43722965D01*
X48086644Y-43742812D01*
X48084232Y-43787811D01*
X48058831Y-43787811D01*
X48058831Y-43459243D01*
X48084232Y-43459243D01*
X48088655Y-43496200D01*
X48096505Y-43522746D01*
X48114911Y-43558076D01*
X48138881Y-43590402D01*
X48171992Y-43623198D01*
X48237189Y-43677169D01*
X48472028Y-43860901D01*
G37*
G36*
X48959598Y-42990053D02*
G01*
X48985000Y-42990053D01*
X48985000Y-43386947D01*
X48959598Y-43386947D01*
X48959598Y-43354158D01*
X48955403Y-43317489D01*
X48944033Y-43290546D01*
X48926137Y-43270871D01*
X48896284Y-43259842D01*
X48820990Y-43254446D01*
X48222840Y-43254446D01*
X48158429Y-43257294D01*
X48129966Y-43263299D01*
X48114658Y-43273205D01*
X48100596Y-43291326D01*
X48088280Y-43322219D01*
X48084232Y-43354158D01*
X48084232Y-43386947D01*
X48058831Y-43386947D01*
X48058831Y-42990053D01*
X48084232Y-42990053D01*
X48084232Y-43023575D01*
X48088410Y-43059786D01*
X48099765Y-43086532D01*
X48117693Y-43106190D01*
X48147612Y-43117684D01*
X48222840Y-43123287D01*
X48820990Y-43123287D01*
X48885401Y-43120439D01*
X48913864Y-43114433D01*
X48929124Y-43104418D01*
X48943234Y-43085735D01*
X48955532Y-43055414D01*
X48959598Y-43023575D01*
X48959598Y-42990053D01*
G37*
G36*
X48985000Y-42326628D02*
G01*
X48959598Y-42326628D01*
X48952629Y-42276372D01*
X48941280Y-42251829D01*
X48923672Y-42237085D01*
X48903178Y-42232350D01*
X48869764Y-42237760D01*
X48808778Y-42259706D01*
X48676277Y-42315698D01*
X48676277Y-42674369D01*
X48821662Y-42737200D01*
X48872614Y-42755740D01*
X48901835Y-42760403D01*
X48921139Y-42755631D01*
X48938899Y-42740253D01*
X48950683Y-42713750D01*
X48959598Y-42653181D01*
X48985000Y-42653181D01*
X48985000Y-42944868D01*
X48959598Y-42944868D01*
X48946229Y-42892643D01*
X48933037Y-42869702D01*
X48890379Y-42837124D01*
X48800108Y-42792521D01*
X48098322Y-42491981D01*
X48251355Y-42491981D01*
X48625474Y-42653181D01*
X48625474Y-42334871D01*
X48251355Y-42491981D01*
X48098322Y-42491981D01*
X48039291Y-42466701D01*
X48039291Y-42442766D01*
X48808229Y-42120365D01*
X48891336Y-42079205D01*
X48928579Y-42049657D01*
X48943664Y-42026984D01*
X48954195Y-41998022D01*
X48959598Y-41961180D01*
X48985000Y-41961180D01*
X48985000Y-42326628D01*
G37*
G36*
X48600104Y-40994868D02*
G01*
X48675746Y-41011250D01*
X48744609Y-41037872D01*
X48807680Y-41074760D01*
X48865687Y-41122450D01*
X48916405Y-41178937D01*
X48954944Y-41238730D01*
X48982293Y-41302399D01*
X48998878Y-41370777D01*
X49004539Y-41444911D01*
X48998939Y-41520162D01*
X48982605Y-41588937D01*
X48955813Y-41652341D01*
X48918265Y-41711250D01*
X48869106Y-41766274D01*
X48812688Y-41812453D01*
X48750379Y-41848419D01*
X48681352Y-41874566D01*
X48604503Y-41890770D01*
X48518496Y-41896394D01*
X48431459Y-41890035D01*
X48353355Y-41871639D01*
X48282743Y-41841734D01*
X48218477Y-41800168D01*
X48159764Y-41746124D01*
X48116144Y-41691517D01*
X48082701Y-41633630D01*
X48058808Y-41571924D01*
X48044262Y-41505670D01*
X48040189Y-41446926D01*
X48090094Y-41446926D01*
X48096084Y-41507222D01*
X48113335Y-41559569D01*
X48141636Y-41605610D01*
X48181929Y-41646412D01*
X48240724Y-41684843D01*
X48313952Y-41714078D01*
X48404678Y-41733110D01*
X48516603Y-41740018D01*
X48609870Y-41735432D01*
X48689514Y-41722544D01*
X48757394Y-41702425D01*
X48815151Y-41675794D01*
X48864160Y-41642992D01*
X48904876Y-41602456D01*
X48933364Y-41556935D01*
X48950671Y-41505404D01*
X48956667Y-41446255D01*
X48950213Y-41383293D01*
X48931420Y-41327323D01*
X48900214Y-41276794D01*
X48855307Y-41230710D01*
X48803231Y-41196460D01*
X48735268Y-41169856D01*
X48647602Y-41152178D01*
X48535654Y-41145653D01*
X48436730Y-41150241D01*
X48354199Y-41162989D01*
X48285683Y-41182615D01*
X48229079Y-41208205D01*
X48182601Y-41239259D01*
X48142414Y-41280059D01*
X48113873Y-41327308D01*
X48096268Y-41382288D01*
X48090094Y-41446926D01*
X48040189Y-41446926D01*
X48039291Y-41433982D01*
X48044774Y-41363606D01*
X48060916Y-41298014D01*
X48087682Y-41236249D01*
X48125606Y-41177556D01*
X48175762Y-41121412D01*
X48232888Y-41073943D01*
X48294713Y-41037326D01*
X48361925Y-41010969D01*
X48435464Y-40994789D01*
X48516481Y-40989215D01*
X48600104Y-40994868D01*
G37*
G36*
X48011936Y-40358214D02*
G01*
X48470685Y-40358214D01*
X48396886Y-40284073D01*
X48363768Y-40237985D01*
X48345909Y-40192858D01*
X48340198Y-40149142D01*
X48343598Y-40114651D01*
X48353419Y-40084458D01*
X48369569Y-40057673D01*
X48391556Y-40035385D01*
X48421665Y-40016372D01*
X48461770Y-40000887D01*
X48514487Y-39991979D01*
X48621566Y-39987942D01*
X48842850Y-39987942D01*
X48897521Y-39984946D01*
X48924061Y-39978355D01*
X48938672Y-39969228D01*
X48950073Y-39955152D01*
X48956662Y-39935140D01*
X48959598Y-39895007D01*
X48985000Y-39895007D01*
X48985000Y-40202448D01*
X48959598Y-40202448D01*
X48959598Y-40188099D01*
X48955612Y-40148222D01*
X48946287Y-40127282D01*
X48930283Y-40113097D01*
X48906842Y-40103408D01*
X48842484Y-40101332D01*
X48620589Y-40101332D01*
X48526590Y-40104767D01*
X48485706Y-40111956D01*
X48456952Y-40126090D01*
X48437407Y-40145784D01*
X48425470Y-40170859D01*
X48421287Y-40201776D01*
X48425537Y-40235105D01*
X48439117Y-40271447D01*
X48463145Y-40307787D01*
X48510985Y-40358214D01*
X48842484Y-40358214D01*
X48900897Y-40355798D01*
X48922595Y-40351070D01*
X48936646Y-40341218D01*
X48948974Y-40324386D01*
X48956374Y-40301176D01*
X48959598Y-40257097D01*
X48985000Y-40257097D01*
X48985000Y-40567225D01*
X48959598Y-40567225D01*
X48955969Y-40528141D01*
X48946592Y-40501646D01*
X48937200Y-40489782D01*
X48920642Y-40479786D01*
X48896528Y-40474224D01*
X48842667Y-40471604D01*
X48275840Y-40471604D01*
X48178469Y-40473364D01*
X48143888Y-40476733D01*
X48121903Y-40483828D01*
X48110427Y-40492425D01*
X48103888Y-40504332D01*
X48101512Y-40520758D01*
X48112442Y-40567225D01*
X48088506Y-40576811D01*
X48011936Y-40389599D01*
X48011936Y-40358214D01*
G37*
G36*
X48816496Y-39320190D02*
G01*
X48873190Y-39347630D01*
X48927419Y-39388142D01*
X48961461Y-39425227D01*
X48985240Y-39465816D01*
X48999604Y-39510687D01*
X49004539Y-39561005D01*
X48999047Y-39615358D01*
X48982896Y-39664937D01*
X48955850Y-39710899D01*
X48916734Y-39754018D01*
X48870760Y-39788097D01*
X48817115Y-39813031D01*
X48754339Y-39828709D01*
X48680551Y-39834252D01*
X48600223Y-39828444D01*
X48533151Y-39812166D01*
X48477040Y-39786560D01*
X48430080Y-39751942D01*
X48390524Y-39707837D01*
X48362788Y-39659388D01*
X48345983Y-39605654D01*
X48343865Y-39583537D01*
X48388070Y-39583537D01*
X48392857Y-39619562D01*
X48407232Y-39653033D01*
X48432217Y-39684959D01*
X48464206Y-39709902D01*
X48504499Y-39727487D01*
X48555132Y-39737227D01*
X48555132Y-39447616D01*
X48499449Y-39453682D01*
X48470258Y-39461965D01*
X48435868Y-39483326D01*
X48409991Y-39512828D01*
X48393429Y-39547811D01*
X48388070Y-39583537D01*
X48343865Y-39583537D01*
X48340198Y-39545252D01*
X48344764Y-39493791D01*
X48357922Y-39448569D01*
X48379398Y-39408403D01*
X48409624Y-39372450D01*
X48446196Y-39343504D01*
X48488516Y-39322516D01*
X48537690Y-39309409D01*
X48595188Y-39304795D01*
X48595188Y-39737227D01*
X48665098Y-39732706D01*
X48723633Y-39719377D01*
X48772722Y-39698237D01*
X48813907Y-39669632D01*
X48849658Y-39632618D01*
X48874001Y-39593990D01*
X48888337Y-39553123D01*
X48893164Y-39509043D01*
X48889255Y-39469232D01*
X48877905Y-39433930D01*
X48859153Y-39402186D01*
X48833537Y-39375532D01*
X48795800Y-39350047D01*
X48742711Y-39325983D01*
X48756449Y-39304795D01*
X48816496Y-39320190D01*
G37*
G36*
X48340198Y-39038020D02*
G01*
X48480943Y-39038020D01*
X48411231Y-38992163D01*
X48369056Y-38950792D01*
X48346997Y-38912904D01*
X48340198Y-38876759D01*
X48346061Y-38842001D01*
X48362974Y-38814660D01*
X48387936Y-38796026D01*
X48415730Y-38790053D01*
X48440367Y-38794537D01*
X48460732Y-38807821D01*
X48474608Y-38827359D01*
X48479173Y-38850137D01*
X48473979Y-38873886D01*
X48455603Y-38903809D01*
X48436499Y-38932440D01*
X48432034Y-38947834D01*
X48435028Y-38959773D01*
X48445711Y-38974456D01*
X48479479Y-39003423D01*
X48537974Y-39038020D01*
X48837965Y-39038020D01*
X48886450Y-39034267D01*
X48916550Y-39025014D01*
X48933015Y-39013195D01*
X48947325Y-38993629D01*
X48956110Y-38968233D01*
X48959598Y-38928722D01*
X48985000Y-38928722D01*
X48985000Y-39249107D01*
X48959598Y-39249107D01*
X48955276Y-39204877D01*
X48944577Y-39178033D01*
X48930861Y-39163827D01*
X48909773Y-39154158D01*
X48843522Y-39150738D01*
X48601050Y-39150738D01*
X48502294Y-39152319D01*
X48470990Y-39155196D01*
X48452332Y-39161839D01*
X48440582Y-39171560D01*
X48433483Y-39184700D01*
X48430996Y-39201297D01*
X48433362Y-39222873D01*
X48441254Y-39249107D01*
X48416707Y-39255946D01*
X48340198Y-39066719D01*
X48340198Y-39038020D01*
G37*
G36*
X48816496Y-38232821D02*
G01*
X48873190Y-38260261D01*
X48927419Y-38300773D01*
X48961461Y-38337858D01*
X48985240Y-38378447D01*
X48999604Y-38423318D01*
X49004539Y-38473636D01*
X48999047Y-38527989D01*
X48982896Y-38577568D01*
X48955850Y-38623529D01*
X48916734Y-38666649D01*
X48870760Y-38700728D01*
X48817115Y-38725662D01*
X48754339Y-38741340D01*
X48680551Y-38746883D01*
X48600223Y-38741075D01*
X48533151Y-38724797D01*
X48477040Y-38699191D01*
X48430080Y-38664573D01*
X48390524Y-38620468D01*
X48362788Y-38572019D01*
X48345983Y-38518285D01*
X48343865Y-38496168D01*
X48388070Y-38496168D01*
X48392857Y-38532193D01*
X48407232Y-38565664D01*
X48432217Y-38597589D01*
X48464206Y-38622533D01*
X48504499Y-38640118D01*
X48555132Y-38649857D01*
X48555132Y-38360246D01*
X48499449Y-38366313D01*
X48470258Y-38374596D01*
X48435868Y-38395956D01*
X48409991Y-38425459D01*
X48393429Y-38460442D01*
X48388070Y-38496168D01*
X48343865Y-38496168D01*
X48340198Y-38457883D01*
X48344764Y-38406422D01*
X48357922Y-38361200D01*
X48379398Y-38321034D01*
X48409624Y-38285081D01*
X48446196Y-38256135D01*
X48488516Y-38235146D01*
X48537690Y-38222040D01*
X48595188Y-38217425D01*
X48595188Y-38649857D01*
X48665098Y-38645337D01*
X48723633Y-38632008D01*
X48772722Y-38610868D01*
X48813907Y-38582263D01*
X48849658Y-38545249D01*
X48874001Y-38506620D01*
X48888337Y-38465753D01*
X48893164Y-38421674D01*
X48889255Y-38381863D01*
X48877905Y-38346561D01*
X48859153Y-38314817D01*
X48833537Y-38288163D01*
X48795800Y-38262678D01*
X48742711Y-38238613D01*
X48756449Y-38217425D01*
X48816496Y-38232821D01*
G37*
G36*
X48852925Y-38002553D02*
G01*
X48858525Y-37972895D01*
X48875151Y-37948575D01*
X48899602Y-37932195D01*
X48928763Y-37926715D01*
X48957853Y-37932270D01*
X48982374Y-37948941D01*
X48998993Y-37973416D01*
X49004539Y-38002553D01*
X48998995Y-38031700D01*
X48982374Y-38056225D01*
X48957858Y-38072849D01*
X48928763Y-38078390D01*
X48899100Y-38072804D01*
X48874785Y-38056225D01*
X48858402Y-38031724D01*
X48852925Y-38002553D01*
G37*
X68186667Y-56033200D02*
X68329524Y-56080819D01*
X68329524Y-56080819D02*
X68567619Y-56080819D01*
X68567619Y-56080819D02*
X68662857Y-56033200D01*
X68662857Y-56033200D02*
X68710476Y-55985580D01*
X68710476Y-55985580D02*
X68758095Y-55890342D01*
X68758095Y-55890342D02*
X68758095Y-55795104D01*
X68758095Y-55795104D02*
X68710476Y-55699866D01*
X68710476Y-55699866D02*
X68662857Y-55652247D01*
X68662857Y-55652247D02*
X68567619Y-55604628D01*
X68567619Y-55604628D02*
X68377143Y-55557009D01*
X68377143Y-55557009D02*
X68281905Y-55509390D01*
X68281905Y-55509390D02*
X68234286Y-55461771D01*
X68234286Y-55461771D02*
X68186667Y-55366533D01*
X68186667Y-55366533D02*
X68186667Y-55271295D01*
X68186667Y-55271295D02*
X68234286Y-55176057D01*
X68234286Y-55176057D02*
X68281905Y-55128438D01*
X68281905Y-55128438D02*
X68377143Y-55080819D01*
X68377143Y-55080819D02*
X68615238Y-55080819D01*
X68615238Y-55080819D02*
X68758095Y-55128438D01*
X69091429Y-55080819D02*
X69329524Y-56080819D01*
X69329524Y-56080819D02*
X69520000Y-55366533D01*
X69520000Y-55366533D02*
X69710476Y-56080819D01*
X69710476Y-56080819D02*
X69948572Y-55080819D01*
X70805714Y-55080819D02*
X70329524Y-55080819D01*
X70329524Y-55080819D02*
X70281905Y-55557009D01*
X70281905Y-55557009D02*
X70329524Y-55509390D01*
X70329524Y-55509390D02*
X70424762Y-55461771D01*
X70424762Y-55461771D02*
X70662857Y-55461771D01*
X70662857Y-55461771D02*
X70758095Y-55509390D01*
X70758095Y-55509390D02*
X70805714Y-55557009D01*
X70805714Y-55557009D02*
X70853333Y-55652247D01*
X70853333Y-55652247D02*
X70853333Y-55890342D01*
X70853333Y-55890342D02*
X70805714Y-55985580D01*
X70805714Y-55985580D02*
X70758095Y-56033200D01*
X70758095Y-56033200D02*
X70662857Y-56080819D01*
X70662857Y-56080819D02*
X70424762Y-56080819D01*
X70424762Y-56080819D02*
X70329524Y-56033200D01*
X70329524Y-56033200D02*
X70281905Y-55985580D01*
D12*
X36243479Y-51803809D02*
X36757526Y-51803809D01*
X36757526Y-51803809D02*
X36818002Y-51773571D01*
X36818002Y-51773571D02*
X36848241Y-51743333D01*
X36848241Y-51743333D02*
X36878479Y-51682857D01*
X36878479Y-51682857D02*
X36878479Y-51561904D01*
X36878479Y-51561904D02*
X36848241Y-51501428D01*
X36848241Y-51501428D02*
X36818002Y-51471190D01*
X36818002Y-51471190D02*
X36757526Y-51440952D01*
X36757526Y-51440952D02*
X36243479Y-51440952D01*
X36878479Y-50805952D02*
X36878479Y-51168809D01*
X36878479Y-50987381D02*
X36243479Y-50987381D01*
X36243479Y-50987381D02*
X36334193Y-51047857D01*
X36334193Y-51047857D02*
X36394669Y-51108333D01*
X36394669Y-51108333D02*
X36424907Y-51168809D01*
D11*
X87236667Y-56033200D02*
X87379524Y-56080819D01*
X87379524Y-56080819D02*
X87617619Y-56080819D01*
X87617619Y-56080819D02*
X87712857Y-56033200D01*
X87712857Y-56033200D02*
X87760476Y-55985580D01*
X87760476Y-55985580D02*
X87808095Y-55890342D01*
X87808095Y-55890342D02*
X87808095Y-55795104D01*
X87808095Y-55795104D02*
X87760476Y-55699866D01*
X87760476Y-55699866D02*
X87712857Y-55652247D01*
X87712857Y-55652247D02*
X87617619Y-55604628D01*
X87617619Y-55604628D02*
X87427143Y-55557009D01*
X87427143Y-55557009D02*
X87331905Y-55509390D01*
X87331905Y-55509390D02*
X87284286Y-55461771D01*
X87284286Y-55461771D02*
X87236667Y-55366533D01*
X87236667Y-55366533D02*
X87236667Y-55271295D01*
X87236667Y-55271295D02*
X87284286Y-55176057D01*
X87284286Y-55176057D02*
X87331905Y-55128438D01*
X87331905Y-55128438D02*
X87427143Y-55080819D01*
X87427143Y-55080819D02*
X87665238Y-55080819D01*
X87665238Y-55080819D02*
X87808095Y-55128438D01*
X88141429Y-55080819D02*
X88379524Y-56080819D01*
X88379524Y-56080819D02*
X88570000Y-55366533D01*
X88570000Y-55366533D02*
X88760476Y-56080819D01*
X88760476Y-56080819D02*
X88998572Y-55080819D01*
X89808095Y-55414152D02*
X89808095Y-56080819D01*
X89570000Y-55033200D02*
X89331905Y-55747485D01*
X89331905Y-55747485D02*
X89950952Y-55747485D01*
X68176667Y-75103200D02*
X68319524Y-75150819D01*
X68319524Y-75150819D02*
X68557619Y-75150819D01*
X68557619Y-75150819D02*
X68652857Y-75103200D01*
X68652857Y-75103200D02*
X68700476Y-75055580D01*
X68700476Y-75055580D02*
X68748095Y-74960342D01*
X68748095Y-74960342D02*
X68748095Y-74865104D01*
X68748095Y-74865104D02*
X68700476Y-74769866D01*
X68700476Y-74769866D02*
X68652857Y-74722247D01*
X68652857Y-74722247D02*
X68557619Y-74674628D01*
X68557619Y-74674628D02*
X68367143Y-74627009D01*
X68367143Y-74627009D02*
X68271905Y-74579390D01*
X68271905Y-74579390D02*
X68224286Y-74531771D01*
X68224286Y-74531771D02*
X68176667Y-74436533D01*
X68176667Y-74436533D02*
X68176667Y-74341295D01*
X68176667Y-74341295D02*
X68224286Y-74246057D01*
X68224286Y-74246057D02*
X68271905Y-74198438D01*
X68271905Y-74198438D02*
X68367143Y-74150819D01*
X68367143Y-74150819D02*
X68605238Y-74150819D01*
X68605238Y-74150819D02*
X68748095Y-74198438D01*
X69081429Y-74150819D02*
X69319524Y-75150819D01*
X69319524Y-75150819D02*
X69510000Y-74436533D01*
X69510000Y-74436533D02*
X69700476Y-75150819D01*
X69700476Y-75150819D02*
X69938572Y-74150819D01*
X70271905Y-74246057D02*
X70319524Y-74198438D01*
X70319524Y-74198438D02*
X70414762Y-74150819D01*
X70414762Y-74150819D02*
X70652857Y-74150819D01*
X70652857Y-74150819D02*
X70748095Y-74198438D01*
X70748095Y-74198438D02*
X70795714Y-74246057D01*
X70795714Y-74246057D02*
X70843333Y-74341295D01*
X70843333Y-74341295D02*
X70843333Y-74436533D01*
X70843333Y-74436533D02*
X70795714Y-74579390D01*
X70795714Y-74579390D02*
X70224286Y-75150819D01*
X70224286Y-75150819D02*
X70843333Y-75150819D01*
X87206667Y-75113200D02*
X87349524Y-75160819D01*
X87349524Y-75160819D02*
X87587619Y-75160819D01*
X87587619Y-75160819D02*
X87682857Y-75113200D01*
X87682857Y-75113200D02*
X87730476Y-75065580D01*
X87730476Y-75065580D02*
X87778095Y-74970342D01*
X87778095Y-74970342D02*
X87778095Y-74875104D01*
X87778095Y-74875104D02*
X87730476Y-74779866D01*
X87730476Y-74779866D02*
X87682857Y-74732247D01*
X87682857Y-74732247D02*
X87587619Y-74684628D01*
X87587619Y-74684628D02*
X87397143Y-74637009D01*
X87397143Y-74637009D02*
X87301905Y-74589390D01*
X87301905Y-74589390D02*
X87254286Y-74541771D01*
X87254286Y-74541771D02*
X87206667Y-74446533D01*
X87206667Y-74446533D02*
X87206667Y-74351295D01*
X87206667Y-74351295D02*
X87254286Y-74256057D01*
X87254286Y-74256057D02*
X87301905Y-74208438D01*
X87301905Y-74208438D02*
X87397143Y-74160819D01*
X87397143Y-74160819D02*
X87635238Y-74160819D01*
X87635238Y-74160819D02*
X87778095Y-74208438D01*
X88111429Y-74160819D02*
X88349524Y-75160819D01*
X88349524Y-75160819D02*
X88540000Y-74446533D01*
X88540000Y-74446533D02*
X88730476Y-75160819D01*
X88730476Y-75160819D02*
X88968572Y-74160819D01*
X89254286Y-74160819D02*
X89873333Y-74160819D01*
X89873333Y-74160819D02*
X89540000Y-74541771D01*
X89540000Y-74541771D02*
X89682857Y-74541771D01*
X89682857Y-74541771D02*
X89778095Y-74589390D01*
X89778095Y-74589390D02*
X89825714Y-74637009D01*
X89825714Y-74637009D02*
X89873333Y-74732247D01*
X89873333Y-74732247D02*
X89873333Y-74970342D01*
X89873333Y-74970342D02*
X89825714Y-75065580D01*
X89825714Y-75065580D02*
X89778095Y-75113200D01*
X89778095Y-75113200D02*
X89682857Y-75160819D01*
X89682857Y-75160819D02*
X89397143Y-75160819D01*
X89397143Y-75160819D02*
X89301905Y-75113200D01*
X89301905Y-75113200D02*
X89254286Y-75065580D01*
X49126667Y-75103200D02*
X49269524Y-75150819D01*
X49269524Y-75150819D02*
X49507619Y-75150819D01*
X49507619Y-75150819D02*
X49602857Y-75103200D01*
X49602857Y-75103200D02*
X49650476Y-75055580D01*
X49650476Y-75055580D02*
X49698095Y-74960342D01*
X49698095Y-74960342D02*
X49698095Y-74865104D01*
X49698095Y-74865104D02*
X49650476Y-74769866D01*
X49650476Y-74769866D02*
X49602857Y-74722247D01*
X49602857Y-74722247D02*
X49507619Y-74674628D01*
X49507619Y-74674628D02*
X49317143Y-74627009D01*
X49317143Y-74627009D02*
X49221905Y-74579390D01*
X49221905Y-74579390D02*
X49174286Y-74531771D01*
X49174286Y-74531771D02*
X49126667Y-74436533D01*
X49126667Y-74436533D02*
X49126667Y-74341295D01*
X49126667Y-74341295D02*
X49174286Y-74246057D01*
X49174286Y-74246057D02*
X49221905Y-74198438D01*
X49221905Y-74198438D02*
X49317143Y-74150819D01*
X49317143Y-74150819D02*
X49555238Y-74150819D01*
X49555238Y-74150819D02*
X49698095Y-74198438D01*
X50031429Y-74150819D02*
X50269524Y-75150819D01*
X50269524Y-75150819D02*
X50460000Y-74436533D01*
X50460000Y-74436533D02*
X50650476Y-75150819D01*
X50650476Y-75150819D02*
X50888572Y-74150819D01*
X51793333Y-75150819D02*
X51221905Y-75150819D01*
X51507619Y-75150819D02*
X51507619Y-74150819D01*
X51507619Y-74150819D02*
X51412381Y-74293676D01*
X51412381Y-74293676D02*
X51317143Y-74388914D01*
X51317143Y-74388914D02*
X51221905Y-74436533D01*
X43856667Y-55547200D02*
X43999524Y-55594819D01*
X43999524Y-55594819D02*
X44237619Y-55594819D01*
X44237619Y-55594819D02*
X44332857Y-55547200D01*
X44332857Y-55547200D02*
X44380476Y-55499580D01*
X44380476Y-55499580D02*
X44428095Y-55404342D01*
X44428095Y-55404342D02*
X44428095Y-55309104D01*
X44428095Y-55309104D02*
X44380476Y-55213866D01*
X44380476Y-55213866D02*
X44332857Y-55166247D01*
X44332857Y-55166247D02*
X44237619Y-55118628D01*
X44237619Y-55118628D02*
X44047143Y-55071009D01*
X44047143Y-55071009D02*
X43951905Y-55023390D01*
X43951905Y-55023390D02*
X43904286Y-54975771D01*
X43904286Y-54975771D02*
X43856667Y-54880533D01*
X43856667Y-54880533D02*
X43856667Y-54785295D01*
X43856667Y-54785295D02*
X43904286Y-54690057D01*
X43904286Y-54690057D02*
X43951905Y-54642438D01*
X43951905Y-54642438D02*
X44047143Y-54594819D01*
X44047143Y-54594819D02*
X44285238Y-54594819D01*
X44285238Y-54594819D02*
X44428095Y-54642438D01*
X44761429Y-54594819D02*
X44999524Y-55594819D01*
X44999524Y-55594819D02*
X45190000Y-54880533D01*
X45190000Y-54880533D02*
X45380476Y-55594819D01*
X45380476Y-55594819D02*
X45618572Y-54594819D01*
X46428095Y-54594819D02*
X46237619Y-54594819D01*
X46237619Y-54594819D02*
X46142381Y-54642438D01*
X46142381Y-54642438D02*
X46094762Y-54690057D01*
X46094762Y-54690057D02*
X45999524Y-54832914D01*
X45999524Y-54832914D02*
X45951905Y-55023390D01*
X45951905Y-55023390D02*
X45951905Y-55404342D01*
X45951905Y-55404342D02*
X45999524Y-55499580D01*
X45999524Y-55499580D02*
X46047143Y-55547200D01*
X46047143Y-55547200D02*
X46142381Y-55594819D01*
X46142381Y-55594819D02*
X46332857Y-55594819D01*
X46332857Y-55594819D02*
X46428095Y-55547200D01*
X46428095Y-55547200D02*
X46475714Y-55499580D01*
X46475714Y-55499580D02*
X46523333Y-55404342D01*
X46523333Y-55404342D02*
X46523333Y-55166247D01*
X46523333Y-55166247D02*
X46475714Y-55071009D01*
X46475714Y-55071009D02*
X46428095Y-55023390D01*
X46428095Y-55023390D02*
X46332857Y-54975771D01*
X46332857Y-54975771D02*
X46142381Y-54975771D01*
X46142381Y-54975771D02*
X46047143Y-55023390D01*
X46047143Y-55023390D02*
X45999524Y-55071009D01*
X45999524Y-55071009D02*
X45951905Y-55166247D01*
D13*
X62535000Y-56515000D02*
X76505000Y-56515000D01*
X62535000Y-70485000D02*
X62535000Y-56515000D01*
X76505000Y-56515000D02*
X76505000Y-70485000D01*
X76505000Y-70485000D02*
X62535000Y-70485000D01*
D14*
X36639000Y-46811272D02*
X36639000Y-38816000D01*
X37139000Y-38316000D02*
X38049000Y-38316000D01*
D15*
X38049000Y-35835000D02*
X38049000Y-49805000D01*
D14*
X38049000Y-35835000D02*
X38049000Y-49805000D01*
X38049000Y-47315000D02*
X37138728Y-47311272D01*
X57099000Y-33930000D02*
X39954000Y-33930000D01*
X57099000Y-51710000D02*
X39954000Y-51710000D01*
X59004000Y-49805000D02*
X59004000Y-35835000D01*
X36639000Y-38816000D02*
G75*
G02*
X37139000Y-38316000I500000J0D01*
G01*
X37138728Y-47311272D02*
G75*
G02*
X36639001Y-46811272I291J500018D01*
G01*
X38049000Y-35835000D02*
G75*
G02*
X39954000Y-33930000I1905000J0D01*
G01*
X39954000Y-51710000D02*
G75*
G02*
X38049000Y-49805000I1J1905001D01*
G01*
X57099000Y-33930000D02*
G75*
G02*
X59004000Y-35835000I0J-1905000D01*
G01*
X59004000Y-49805000D02*
G75*
G02*
X57099000Y-51710000I-1905001J1D01*
G01*
D16*
X38542000Y-51770000D02*
G75*
G02*
X38038000Y-51770000I-252000J0D01*
G01*
X38038000Y-51770000D02*
G75*
G02*
X38542000Y-51770000I252000J0D01*
G01*
X39422000Y-50627000D02*
G75*
G02*
X38918000Y-50627000I-252000J0D01*
G01*
X38918000Y-50627000D02*
G75*
G02*
X39422000Y-50627000I252000J0D01*
G01*
D13*
X81585000Y-56515000D02*
X95555000Y-56515000D01*
X81585000Y-70485000D02*
X81585000Y-56515000D01*
X95555000Y-56515000D02*
X95555000Y-70485000D01*
X95555000Y-70485000D02*
X81585000Y-70485000D01*
X62525000Y-75585000D02*
X76495000Y-75585000D01*
X62525000Y-89555000D02*
X62525000Y-75585000D01*
X76495000Y-75585000D02*
X76495000Y-89555000D01*
X76495000Y-89555000D02*
X62525000Y-89555000D01*
X81555000Y-75595000D02*
X95525000Y-75595000D01*
X81555000Y-89565000D02*
X81555000Y-75595000D01*
X95525000Y-75595000D02*
X95525000Y-89565000D01*
X95525000Y-89565000D02*
X81555000Y-89565000D01*
X43475000Y-75585000D02*
X57445000Y-75585000D01*
X43475000Y-89555000D02*
X43475000Y-75585000D01*
X57445000Y-75585000D02*
X57445000Y-89555000D01*
X57445000Y-89555000D02*
X43475000Y-89555000D01*
X42090000Y-58240000D02*
X42690000Y-58240000D01*
X42390000Y-58540000D02*
X42090000Y-58240000D01*
X42690000Y-58240000D02*
X42390000Y-58540000D01*
X43790000Y-56440000D02*
X43790000Y-68240000D01*
X47890000Y-56440000D02*
X43790000Y-56440000D01*
X47890000Y-68240000D02*
X43790000Y-68240000D01*
X49390000Y-62340000D02*
X50390000Y-62340000D01*
X49890000Y-61840000D02*
X49890000Y-62840000D01*
X51890000Y-56440000D02*
X55990000Y-56440000D01*
X55990000Y-56440000D02*
X55990000Y-58840000D01*
X55990000Y-61040000D02*
X55990000Y-63640000D01*
X55990000Y-65840000D02*
X55990000Y-68240000D01*
X55990000Y-68240000D02*
X51890000Y-68240000D01*
X52890000Y-62340000D02*
G75*
G02*
X46890000Y-62340000I-3000000J0D01*
G01*
X46890000Y-62340000D02*
G75*
G02*
X52890000Y-62340000I3000000J0D01*
G01*
M02*
