G04 #@! TF.GenerationSoftware,KiCad,Pcbnew,9.0.2*
G04 #@! TF.CreationDate,2025-08-01T12:28:15-04:00*
G04 #@! TF.ProjectId,hackpad,6861636b-7061-4642-9e6b-696361645f70,rev?*
G04 #@! TF.SameCoordinates,Original*
G04 #@! TF.FileFunction,Legend,Bot*
G04 #@! TF.FilePolarity,Positive*
%FSLAX46Y46*%
G04 Gerber Fmt 4.6, Leading zero omitted, Abs format (unit mm)*
G04 Created by KiCad (PCBNEW 9.0.2) date 2025-08-01 12:28:15*
%MOMM*%
%LPD*%
G01*
G04 APERTURE LIST*
%ADD10C,0.100000*%
G04 APERTURE END LIST*
D10*
X73720000Y-70479999D02*
X72820000Y-70479999D01*
X73720000Y-69579999D01*
X73720000Y-70479999D01*
G36*
X73720000Y-70479999D02*
G01*
X72820000Y-70479999D01*
X73720000Y-69579999D01*
X73720000Y-70479999D01*
G37*
X73710000Y-89549999D02*
X72810000Y-89549999D01*
X73710000Y-88649999D01*
X73710000Y-89549999D01*
G36*
X73710000Y-89549999D02*
G01*
X72810000Y-89549999D01*
X73710000Y-88649999D01*
X73710000Y-89549999D01*
G37*
X92770000Y-70479999D02*
X91870000Y-70479999D01*
X92770000Y-69579999D01*
X92770000Y-70479999D01*
G36*
X92770000Y-70479999D02*
G01*
X91870000Y-70479999D01*
X92770000Y-69579999D01*
X92770000Y-70479999D01*
G37*
X92740000Y-89559999D02*
X91840000Y-89559999D01*
X92740000Y-88659999D01*
X92740000Y-89559999D01*
G36*
X92740000Y-89559999D02*
G01*
X91840000Y-89559999D01*
X92740000Y-88659999D01*
X92740000Y-89559999D01*
G37*
X54660000Y-89549999D02*
X53760000Y-89549999D01*
X54660000Y-88649999D01*
X54660000Y-89549999D01*
G36*
X54660000Y-89549999D02*
G01*
X53760000Y-89549999D01*
X54660000Y-88649999D01*
X54660000Y-89549999D01*
G37*
M02*
